<svg width="393" height="103" viewBox="0 0 393 103" fill="none" xmlns="http://www.w3.org/2000/svg">
<g clip-path="url(#clip0_121_258)">
<path d="M-0.570035 0.0915206L49.2649 0.091525L52.682 3.49083L235.763 3.49084L235.763 4.0231L52.4611 4.02308L49.044 0.623778L-0.349118 0.623774L-21.7355 21.9209L-21.7355 37.8069L-22.2699 37.8069L-22.2699 21.7009L-0.570035 0.0915206Z" fill="#BDE1F1"/>
<path d="M-0.705456 4.99176L49.1295 4.99176L52.5466 8.39462L235.624 8.39463L235.624 8.92689L52.3221 8.92687L48.9086 5.52402L-0.48454 5.52401L-21.8709 26.8212L-21.8709 42.7071L-22.4054 42.7071L-22.4054 26.6012L-0.705456 4.99176Z" fill="#BDE1F1"/>
<g style="mix-blend-mode:soft-light" opacity="0.51">
<path d="M355.148 -9.82254L404.987 -9.82254L426.686 11.7869L426.686 27.8929L426.152 27.8929L426.152 12.0069L404.766 -9.29029L355.372 -9.29029L351.955 -5.88744L211.052 -5.88745L211.052 -6.4197L351.734 -6.41969L355.148 -9.82254Z" stroke="#BDE1F1" stroke-miterlimit="10"/>
</g>
<g style="mix-blend-mode:soft-light" opacity="0.51">
<path d="M355.287 -4.92227L405.122 -4.92227L426.822 16.6872L426.822 32.7931L426.287 32.7931L426.287 16.9072L404.901 -4.39002L355.508 -4.39002L352.091 -0.987168L244.336 -0.987177L244.336 -1.51943L351.87 -1.51942L355.287 -4.92227Z" stroke="#BDE1F1" stroke-miterlimit="10"/>
</g>
<path d="M87.0598 78.6023L112.073 78.6023L112.073 79.1345L87.2807 79.1345L76.1991 90.1699L-19.1985 90.1698L-19.1985 89.6376L75.9782 89.6376L87.0598 78.6023Z" fill="#BDE1F1"/>
<path d="M87.0954 64.4408L171.016 64.4408L171.016 64.7956L87.2451 64.7956L76.1599 75.8345L-19.1985 75.8345L-19.1985 75.4797L76.0138 75.4797L87.0954 64.4408Z" fill="#BDE1F1"/>
<path d="M87.8081 16.68L195.292 16.68L195.292 17.2123L88.029 17.2123L76.9439 28.2476L-18.4502 28.2476L-18.4502 27.7154L76.7229 27.7154L87.8081 16.68Z" fill="#BDE1F1"/>
<path d="M-19.6617 32.9066L78.7433 32.9066L78.7433 58.5825L65.1354 72.1301L-27.6326 72.1301L-27.6326 71.5978L64.9145 71.5978L78.2088 58.3625L78.2088 33.4389L-19.6617 33.4389L-19.6617 32.9066Z" fill="#BDE1F1"/>
<path d="M-6.39235 37.7607L69.7818 37.7608L69.7818 55.8289L59.2133 65.3385L-12.5567 65.3385L-12.5567 64.8063L59.0067 64.8063L69.2473 55.5912L69.2473 38.293L-6.39235 38.293L-6.39235 37.7607Z" fill="#BDE1F1"/>
<path d="M387.883 -1.34909L415.338 -1.34908L415.338 -1.04038L388.197 -1.04038L388.197 16.1762L393.15 21.1084L414.051 21.1084L414.051 21.4171L393.021 21.4171L387.883 16.3039L387.883 -1.34909Z" fill="#BDE1F1"/>
<path d="M389.907 0.318626L413.339 0.318628L413.339 0.581224L390.171 0.581222L390.171 15.2749L394.4 19.4868L412.241 19.4868L412.241 19.7494L394.29 19.7494L389.907 15.3849L389.907 0.318626Z" fill="#BDE1F1"/>
<path d="M392.49 2.44762L410.784 2.44762L410.784 2.65343L392.697 2.65343L392.697 14.1252L395.997 17.4146L409.929 17.4146L409.929 17.6204L395.911 17.6204L392.49 14.2104L392.49 2.44762Z" fill="#BDE1F1"/>
<path d="M218.082 32.8144L361.644 32.8144L370.238 41.3694L413.111 41.3694L413.111 41.813L370.053 41.813L361.458 33.2579L218.082 33.2579L218.082 32.8144Z" fill="#BDE1F1"/>
<path d="M218.082 25.7532L361.644 25.7532L370.238 34.3118L413.111 34.3118L413.111 34.7553L370.053 34.7553L361.458 26.1967L218.082 26.1967L218.082 25.7532Z" fill="#BDE1F1"/>
<path d="M218.082 17.741L361.644 17.741L370.238 26.2961L413.111 26.2961L413.111 26.7396L370.053 26.7396L361.458 18.181L218.082 18.181L218.082 17.741Z" fill="#BDE1F1"/>
<path d="M0.434764 79.3403C1.17947 79.3403 1.7888 79.9435 1.7888 80.6887C1.7888 81.4338 1.17947 82.0371 0.434764 82.0371C-0.309945 82.0371 -0.919227 81.4303 -0.919227 80.6887C-0.919227 79.9471 -0.313508 79.3403 0.434764 79.3403ZM0.434764 81.7674C1.03338 81.7674 1.52156 81.2813 1.52156 80.6851C1.52156 80.089 1.03338 79.6064 0.434764 79.6064C-0.163854 79.6064 -0.648463 80.0926 -0.648463 80.6851C-0.648463 81.2777 -0.160291 81.7674 0.434764 81.7674Z" fill="#BDE1F1"/>
<path d="M4.79612 79.3403C5.54083 79.3403 6.15015 79.9435 6.15015 80.6887C6.15015 81.4338 5.54439 82.0371 4.79612 82.0371C4.04785 82.0371 3.44213 81.4303 3.44213 80.6887C3.44213 79.9471 4.04785 79.3403 4.79612 79.3403ZM4.79612 81.7674C5.39474 81.7674 5.87935 81.2813 5.87935 80.6851C5.87935 80.089 5.39118 79.6064 4.79612 79.6064C4.20107 79.6064 3.71294 80.0926 3.71294 80.6851C3.71294 81.2777 4.20107 81.7674 4.79612 81.7674Z" fill="#BDE1F1"/>
<path d="M9.15393 79.3403C9.89864 79.3403 10.508 79.9435 10.508 80.6887C10.508 81.4338 9.9022 82.037 9.15393 82.037C8.40566 82.037 7.79994 81.4303 7.79994 80.6887C7.79994 79.947 8.40566 79.3403 9.15393 79.3403ZM9.15393 81.7674C9.75255 81.7674 10.2372 81.2812 10.2372 80.6851C10.2372 80.089 9.74899 79.6064 9.15393 79.6064C8.55888 79.6064 8.07075 80.0925 8.07075 80.6851C8.07075 81.2777 8.55888 81.7674 9.15393 81.7674Z" fill="#BDE1F1"/>
<path d="M349.889 12.1985C349.889 12.8301 349.376 13.341 348.741 13.341C348.107 13.341 347.594 12.8301 347.594 12.1985C347.594 11.5669 348.107 11.0559 348.741 11.0559C349.376 11.0559 349.889 11.5669 349.889 12.1985ZM349.621 12.1985C349.621 11.7159 349.226 11.322 348.741 11.322C348.257 11.322 347.861 11.7159 347.861 12.1985C347.861 12.6811 348.257 13.0749 348.741 13.0749C349.226 13.0749 349.621 12.6811 349.621 12.1985Z" fill="#BDE1F1"/>
<path d="M361.483 12.1985C361.483 12.8301 360.97 13.3411 360.336 13.3411C359.702 13.3411 359.189 12.8301 359.189 12.1985C359.189 11.5669 359.702 11.0559 360.336 11.0559C360.97 11.0559 361.483 11.5669 361.483 12.1985ZM361.216 12.1985C361.216 11.7159 360.821 11.322 360.336 11.322C359.851 11.322 359.456 11.7159 359.456 12.1985C359.456 12.6811 359.851 13.0749 360.336 13.0749C360.821 13.0749 361.216 12.6811 361.216 12.1985Z" fill="#BDE1F1"/>
<path d="M344.091 12.1985C344.091 12.8301 343.578 13.341 342.944 13.341C342.31 13.341 341.797 12.8301 341.797 12.1985C341.797 11.5669 342.31 11.0559 342.944 11.0559C343.578 11.0559 344.091 11.5669 344.091 12.1985ZM343.824 12.1985C343.824 11.7159 343.429 11.322 342.944 11.322C342.459 11.322 342.064 11.7159 342.064 12.1985C342.064 12.6811 342.459 13.0749 342.944 13.0749C343.429 13.0749 343.824 12.6811 343.824 12.1985Z" fill="#BDE1F1"/>
<path d="M355.686 12.1985C355.686 12.8301 355.173 13.3411 354.539 13.3411C353.904 13.3411 353.391 12.8301 353.391 12.1985C353.391 11.5669 353.904 11.0559 354.539 11.0559C355.173 11.0559 355.686 11.5669 355.686 12.1985ZM355.419 12.1985C355.419 11.7159 355.023 11.322 354.539 11.322C354.054 11.322 353.659 11.7159 353.659 12.1985C353.659 12.6811 354.054 13.0749 354.539 13.0749C355.023 13.0749 355.419 12.6811 355.419 12.1985Z" fill="#BDE1F1"/>
<path d="M50.284 55.2328C50.765 55.2328 51.1534 55.6196 51.1534 56.0986C51.1534 56.5776 50.765 56.9644 50.284 56.9644C49.8029 56.9644 49.4145 56.5776 49.4145 56.0986C49.4145 55.6196 49.8029 55.2328 50.284 55.2328ZM50.284 56.6522C50.5904 56.6522 50.8398 56.4038 50.8398 56.0986C50.8398 55.7935 50.5904 55.5451 50.284 55.5451C49.9775 55.5451 49.7281 55.7935 49.7281 56.0986C49.7281 56.4038 49.9775 56.6522 50.284 56.6522Z" fill="#BDE1F1"/>
<path d="M50.284 51.17C50.765 51.17 51.1534 51.5567 51.1534 52.0358C51.1534 52.5148 50.765 52.9016 50.284 52.9016C49.8029 52.9016 49.4145 52.5148 49.4145 52.0358C49.4145 51.5567 49.8029 51.17 50.284 51.17ZM50.284 52.5893C50.5904 52.5893 50.8398 52.3409 50.8398 52.0358C50.8398 51.7306 50.5904 51.4822 50.284 51.4822C49.9775 51.4822 49.7281 51.7306 49.7281 52.0358C49.7281 52.3409 49.9775 52.5893 50.284 52.5893Z" fill="#BDE1F1"/>
<path d="M50.284 47.1071C50.765 47.1071 51.1534 47.4939 51.1534 47.9729C51.1534 48.4519 50.765 48.8387 50.284 48.8387C49.8029 48.8387 49.4145 48.4519 49.4145 47.9729C49.4145 47.4939 49.8029 47.1071 50.284 47.1071ZM50.284 48.53C50.5904 48.53 50.8398 48.2816 50.8398 47.9765C50.8398 47.6713 50.5904 47.4229 50.284 47.4229C49.9775 47.4229 49.7281 47.6713 49.7281 47.9765C49.7281 48.2816 49.9775 48.53 50.284 48.53Z" fill="#BDE1F1"/>
<path d="M50.284 43.0443C50.765 43.0443 51.1534 43.431 51.1534 43.9101C51.1534 44.3891 50.765 44.7759 50.284 44.7759C49.8029 44.7759 49.4145 44.3891 49.4145 43.9101C49.4145 43.431 49.8029 43.0443 50.284 43.0443ZM50.284 44.4671C50.5904 44.4671 50.8398 44.2188 50.8398 43.9136C50.8398 43.6084 50.5904 43.3601 50.284 43.3601C49.9775 43.3601 49.7281 43.6084 49.7281 43.9136C49.7281 44.2188 49.9775 44.4671 50.284 44.4671Z" fill="#BDE1F1"/>
<path d="M54.7308 55.2328C55.2119 55.2328 55.6003 55.6196 55.6003 56.0986C55.6003 56.5776 55.2119 56.9644 54.7308 56.9644C54.2498 56.9644 53.8614 56.5776 53.8614 56.0986C53.8614 55.6196 54.2498 55.2328 54.7308 55.2328ZM54.7308 56.6522C55.0373 56.6522 55.2867 56.4038 55.2867 56.0986C55.2867 55.7935 55.0373 55.5451 54.7308 55.5451C54.4244 55.5451 54.175 55.7935 54.175 56.0986C54.175 56.4038 54.4244 56.6522 54.7308 56.6522Z" fill="#BDE1F1"/>
<path d="M54.7308 51.17C55.2119 51.17 55.6003 51.5567 55.6003 52.0358C55.6003 52.5148 55.2119 52.9016 54.7308 52.9016C54.2498 52.9016 53.8614 52.5148 53.8614 52.0358C53.8614 51.5567 54.2498 51.17 54.7308 51.17ZM54.7308 52.5893C55.0373 52.5893 55.2867 52.3409 55.2867 52.0358C55.2867 51.7306 55.0373 51.4822 54.7308 51.4822C54.4244 51.4822 54.175 51.7306 54.175 52.0358C54.175 52.3409 54.4244 52.5893 54.7308 52.5893Z" fill="#BDE1F1"/>
<path d="M54.7308 47.1071C55.2119 47.1071 55.6003 47.4939 55.6003 47.9729C55.6003 48.4519 55.2119 48.8387 54.7308 48.8387C54.2498 48.8387 53.8614 48.4519 53.8614 47.9729C53.8614 47.4939 54.2498 47.1071 54.7308 47.1071ZM54.7308 48.53C55.0373 48.53 55.2867 48.2816 55.2867 47.9765C55.2867 47.6713 55.0373 47.4229 54.7308 47.4229C54.4244 47.4229 54.175 47.6713 54.175 47.9765C54.175 48.2816 54.4244 48.53 54.7308 48.53Z" fill="#BDE1F1"/>
<path d="M54.7308 43.0443C55.2119 43.0443 55.6003 43.431 55.6003 43.9101C55.6003 44.3891 55.2119 44.7759 54.7308 44.7759C54.2498 44.7759 53.8614 44.3891 53.8614 43.9101C53.8614 43.431 54.2498 43.0443 54.7308 43.0443ZM54.7308 44.4671C55.0373 44.4671 55.2867 44.2188 55.2867 43.9136C55.2867 43.6084 55.0373 43.3601 54.7308 43.3601C54.4244 43.3601 54.175 43.6084 54.175 43.9136C54.175 44.2188 54.4244 44.4671 54.7308 44.4671Z" fill="#BDE1F1"/>
<path d="M59.1777 55.2328C59.6587 55.2328 60.0472 55.6196 60.0472 56.0986C60.0472 56.5776 59.6587 56.9644 59.1777 56.9644C58.6967 56.9644 58.3083 56.5776 58.3083 56.0986C58.3083 55.6196 58.6967 55.2328 59.1777 55.2328ZM59.1777 56.6522C59.4841 56.6522 59.7336 56.4038 59.7336 56.0986C59.7336 55.7935 59.4841 55.5451 59.1777 55.5451C58.8713 55.5451 58.6219 55.7935 58.6219 56.0986C58.6219 56.4038 58.8713 56.6522 59.1777 56.6522Z" fill="#BDE1F1"/>
<path d="M59.1777 51.17C59.6587 51.17 60.0472 51.5567 60.0472 52.0358C60.0472 52.5148 59.6587 52.9016 59.1777 52.9016C58.6967 52.9016 58.3083 52.5148 58.3083 52.0358C58.3083 51.5567 58.6967 51.17 59.1777 51.17ZM59.1777 52.5893C59.4842 52.5893 59.7336 52.3409 59.7336 52.0358C59.7336 51.7306 59.4842 51.4822 59.1777 51.4822C58.8713 51.4822 58.6219 51.7306 58.6219 52.0358C58.6219 52.3409 58.8713 52.5893 59.1777 52.5893Z" fill="#BDE1F1"/>
<path d="M59.1777 47.1071C59.6587 47.1071 60.0472 47.4939 60.0472 47.9729C60.0472 48.4519 59.6587 48.8387 59.1777 48.8387C58.6967 48.8387 58.3083 48.4519 58.3083 47.9729C58.3083 47.4939 58.6967 47.1071 59.1777 47.1071ZM59.1777 48.53C59.4842 48.53 59.7336 48.2816 59.7336 47.9765C59.7336 47.6713 59.4842 47.4229 59.1777 47.4229C58.8713 47.4229 58.6219 47.6713 58.6219 47.9765C58.6219 48.2816 58.8713 48.53 59.1777 48.53Z" fill="#BDE1F1"/>
<path d="M59.1777 43.0443C59.6587 43.0443 60.0472 43.431 60.0472 43.9101C60.0472 44.3891 59.6587 44.7759 59.1777 44.7759C58.6967 44.7759 58.3083 44.3891 58.3083 43.9101C58.3083 43.431 58.6967 43.0443 59.1777 43.0443ZM59.1777 44.4672C59.4842 44.4672 59.7336 44.2188 59.7336 43.9136C59.7336 43.6085 59.4842 43.3601 59.1777 43.3601C58.8713 43.3601 58.6219 43.6085 58.6219 43.9136C58.6219 44.2188 58.8713 44.4672 59.1777 44.4672Z" fill="#BDE1F1"/>
</g>
<defs>
<clipPath id="clip0_121_258">
<rect width="461" height="113" fill="white" transform="translate(427 103) rotate(-180)"/>
</clipPath>
</defs>
</svg>
