<svg width="24" height="24" viewBox="0 0 24 24" fill="none" xmlns="http://www.w3.org/2000/svg">
<mask id="mask0_132_150" style="mask-type:alpha" maskUnits="userSpaceOnUse" x="0" y="0" width="24" height="24">
<rect width="24" height="24" fill="#D9D9D9"/>
</mask>
<g mask="url(#mask0_132_150)">
<path d="M2.05775 13.6345C1.55258 13.6345 1.125 13.4595 0.775 13.1095C0.425 12.7595 0.25 12.332 0.25 11.827V5.8845C0.25 5.723 0.283667 5.56825 0.351 5.42025C0.418333 5.27208 0.509 5.141 0.623 5.027L5.4 0.25L5.977 0.827C6.05767 0.907667 6.12658 1.00958 6.18375 1.13275C6.24075 1.25575 6.26925 1.373 6.26925 1.4845V1.66525L5.49225 5.13475H10.5577C10.8987 5.13475 11.1827 5.24817 11.4095 5.475C11.6365 5.702 11.75 5.986 11.75 6.327V7.1345C11.75 7.2345 11.7417 7.32717 11.725 7.4125C11.7083 7.49767 11.6833 7.58192 11.65 7.66525L9.41925 12.8693C9.31542 13.1077 9.15833 13.2949 8.948 13.4307C8.73783 13.5666 8.50517 13.6345 8.25 13.6345H2.05775ZM8.10375 12.1348L10.25 7.09225V6.94225C10.25 6.85258 10.2212 6.77892 10.1635 6.72125C10.1058 6.66342 10.0321 6.6345 9.94225 6.6345H3.65775L4.373 3.41525L1.75 6.00775V11.827C1.75 11.9167 1.77883 11.9903 1.8365 12.048C1.89417 12.1058 1.96792 12.1348 2.05775 12.1348H8.10375ZM18.6 23.75L18.023 23.173C17.9423 23.0923 17.8734 22.9904 17.8163 22.8673C17.7593 22.7443 17.7307 22.627 17.7307 22.5155V22.3348L18.5077 18.8652H13.4423C13.1013 18.8652 12.8173 18.7518 12.5905 18.525C12.3635 18.298 12.25 18.014 12.25 17.673V16.8655C12.25 16.7655 12.2583 16.6728 12.275 16.5875C12.2917 16.5023 12.3167 16.4181 12.35 16.3348L14.5807 11.1307C14.6949 10.8923 14.8546 10.7051 15.0598 10.5693C15.2648 10.4334 15.4948 10.3655 15.75 10.3655H21.9423C22.4474 10.3655 22.875 10.5405 23.225 10.8905C23.575 11.2405 23.75 11.668 23.75 12.173V18.1155C23.75 18.277 23.7189 18.4292 23.6568 18.572C23.5946 18.715 23.5013 18.8487 23.377 18.973L18.6 23.75ZM15.8962 11.8652L13.75 16.9078V17.0578C13.75 17.1474 13.7788 17.2211 13.8365 17.2788C13.8942 17.3366 13.9679 17.3655 14.0577 17.3655H20.3423L19.627 20.5848L22.25 17.9923V12.173C22.25 12.0833 22.2212 12.0097 22.1635 11.952C22.1058 11.8942 22.0321 11.8652 21.9423 11.8652H15.8962ZM1.75 11.827V6.00775V12.1348V11.827ZM22.25 12.173V17.9923V11.8652V12.173Z" fill="white"/>
</g>
</svg>
