<svg width="287" height="80" viewBox="0 0 287 80" fill="none" xmlns="http://www.w3.org/2000/svg">
<path d="M16.1654 62.4026C17.9685 62.4026 19.5845 62.1386 21.0138 61.6109C22.443 61.0832 23.6524 60.3796 24.6419 59.5C25.6314 58.6205 26.39 57.598 26.9177 56.4326C27.4454 55.2672 27.7092 54.025 27.7092 52.7057C27.7092 50.9906 27.3245 49.5283 26.5549 48.319C25.7853 47.1096 24.7738 46.0651 23.5205 45.1856C22.2672 44.3061 20.8599 43.5255 19.2987 42.8439C17.7375 42.1622 16.1324 41.5027 14.4833 40.865C12.8342 40.2274 11.218 39.5346 9.63488 38.787C8.05172 38.0394 6.64443 37.16 5.41309 36.1485C4.18174 35.137 3.19231 33.9277 2.4447 32.5204C1.6971 31.1132 1.32324 29.42 1.32324 27.4411C1.32324 25.1103 1.86199 23.2083 2.93942 21.7351C4.01685 20.2619 5.3142 19.0855 6.83139 18.206C8.34859 17.3265 9.94271 16.7217 11.6138 16.3919C13.2849 16.062 14.6922 15.8971 15.8356 15.8971C18.1664 15.8971 20.2553 16.271 22.1023 17.0186C23.9493 17.7662 25.4664 18.4258 26.6538 18.9975C27.0936 19.3053 27.4674 19.4593 27.7753 19.4593C28.0831 19.4593 28.3139 19.3494 28.4678 19.1295C28.6218 18.9096 28.6988 18.7117 28.6988 18.5358H29.0286V27.3092H28.6988C28.3909 25.9019 27.8412 24.5716 27.0496 23.3182C26.258 22.0649 25.2906 20.9655 24.1472 20.02C23.0038 19.0745 21.7175 18.3159 20.2882 17.7442C18.859 17.1725 17.3748 16.8866 15.8356 16.8866C14.3404 16.8866 12.8891 17.0955 11.4819 17.5133C10.0746 17.9311 8.81029 18.5357 7.68889 19.3273C6.56748 20.1189 5.66594 21.0864 4.9843 22.2298C4.30266 23.3732 3.9619 24.6925 3.9619 26.1877C3.9619 28.4745 4.61058 30.3326 5.90789 31.7618C7.2052 33.1911 8.83225 34.4113 10.7892 35.4228C12.7462 36.4343 14.8681 37.3469 17.1549 38.1604C19.4416 38.974 21.5635 39.9305 23.5205 41.0299C25.4775 42.1293 27.1046 43.4815 28.4019 45.0866C29.6992 46.6918 30.3479 48.7916 30.3479 51.3863C30.3479 53.1453 29.9631 54.7616 29.1935 56.2348C28.4239 57.708 27.3905 58.9724 26.0931 60.0278C24.7958 61.0832 23.2896 61.9077 21.5745 62.5014C19.8594 63.0951 18.0564 63.392 16.1654 63.392C14.1425 63.392 12.4164 63.26 10.9872 62.9961C9.55793 62.7322 8.3266 62.4025 7.29315 62.0067C6.2597 61.6109 5.35815 61.1931 4.58856 60.7533C3.81897 60.3136 3.08232 59.9397 2.37869 59.6319C1.93892 59.324 1.56515 59.1702 1.25731 59.1702C0.949478 59.1702 0.718646 59.2801 0.564727 59.5C0.410809 59.7199 0.333809 59.9178 0.333809 60.0937H0.0039978V51.3203H0.333809C0.685622 52.9475 1.3343 54.4427 2.2798 55.806C3.22529 57.1693 4.39068 58.3346 5.77595 59.3021C7.16121 60.2696 8.73339 61.0282 10.4925 61.5779C12.2515 62.1276 14.1425 62.4026 16.1654 62.4026Z" fill="#005A81"/>
<path d="M52.1164 62.7325L51.9844 62.6005V56.1359C50.885 57.2793 49.8626 58.3018 48.9171 59.2034C47.9716 60.1049 47.0151 60.8635 46.0476 61.4792C45.0801 62.0948 44.0356 62.5676 42.9142 62.8974C41.7928 63.2272 40.5285 63.3921 39.1212 63.3921C37.626 63.3921 36.2848 63.1612 35.0974 62.6994C33.91 62.2377 32.9205 61.611 32.1289 60.8194C31.3374 60.0278 30.7327 59.1043 30.3149 58.0489C29.8971 56.9934 29.6882 55.872 29.6882 54.6846C29.6882 52.3099 30.4249 50.364 31.8981 48.8469C33.3713 47.3297 35.2293 46.0653 37.4721 45.0539C39.7149 44.0424 42.1336 43.2069 44.7282 42.5472C47.3228 41.8876 49.7416 41.2059 51.9844 40.5023V40.4363C51.9844 37.1821 51.1489 34.6753 49.4777 32.9163C47.8066 31.1572 45.5198 30.2776 42.6173 30.2776C41.0341 30.2776 39.583 30.6954 38.2637 31.5309C36.9444 32.3665 35.845 33.6858 34.9655 35.4888C34.7456 35.8846 34.4927 36.1705 34.2069 36.3464C33.921 36.5223 33.6022 36.6103 33.2504 36.6103C32.8106 36.6103 32.4368 36.5223 32.1289 36.3464C31.5133 35.9946 31.2384 35.5108 31.3044 34.8951C31.3704 34.2795 31.5353 33.7958 31.7991 33.444C32.6787 32.3006 33.987 31.2892 35.7241 30.4096C37.4611 29.5301 39.8248 29.0902 42.8153 29.0902C44.3544 29.0902 45.8277 29.3102 47.235 29.75C48.6422 30.1898 49.8955 30.8713 50.9949 31.7948C52.0944 32.7183 52.974 33.8947 53.6336 35.3239C54.2933 36.7532 54.623 38.4574 54.623 40.4363V57.9829C54.623 58.4667 54.7769 58.8295 55.0847 59.0713C55.3925 59.3132 55.7444 59.4892 56.1402 59.5991C56.536 59.709 56.9097 59.753 57.2615 59.731C57.6133 59.709 57.8112 59.676 57.8552 59.632L57.9872 59.962L52.1164 62.7325ZM51.9844 41.4917C49.6096 42.1953 47.2569 42.877 44.9261 43.5367C42.5954 44.1963 40.5065 44.9988 38.6595 45.9443C36.8125 46.8898 35.3062 48.0553 34.1408 49.4405C32.9755 50.8258 32.3709 52.5738 32.3269 54.6846C32.3269 55.6521 32.4808 56.5756 32.7886 57.4552C33.0965 58.3347 33.5802 59.1044 34.2398 59.764C34.8995 60.4237 35.724 60.9514 36.7135 61.3471C37.703 61.7429 38.8354 61.9408 40.1108 61.9408C41.2981 61.9408 42.4194 61.7429 43.4749 61.3471C44.5303 60.9514 45.5418 60.4126 46.5093 59.731C47.4768 59.0493 48.4113 58.2798 49.3128 57.4223C50.2144 56.5647 51.1048 55.6741 51.9844 54.7506V41.4917Z" fill="#005A81"/>
<path d="M60.23 28.9584C60.23 27.5511 60.406 26.0889 60.7578 24.5717C61.1096 23.0545 61.7033 21.6802 62.5389 20.4489C63.3745 19.2175 64.5178 18.206 65.969 17.4145C67.4203 16.6229 69.2234 16.2271 71.3782 16.2271C74.0168 16.2271 76.0398 16.6669 77.447 17.5465C78.8543 18.426 79.9757 19.4375 80.8112 20.5809C81.0751 20.9327 81.24 21.4163 81.3059 22.032C81.3719 22.6477 81.0969 23.1314 80.4812 23.4833C80.1734 23.6592 79.7997 23.7471 79.3599 23.7471C78.6123 23.7471 78.0406 23.3733 77.6448 22.6257C77.205 21.7461 76.8092 20.9766 76.4574 20.317C76.1056 19.6573 75.7098 19.1075 75.27 18.6678C74.8302 18.228 74.3136 17.9093 73.7199 17.7114C73.1263 17.5135 72.3457 17.4145 71.3782 17.4145C69.6191 17.4145 68.1788 17.8213 67.0574 18.6349C65.936 19.4485 65.0675 20.4378 64.4518 21.6032C63.8362 22.7686 63.4184 24.022 63.1985 25.3633C62.9786 26.7046 62.8687 27.9029 62.8687 28.9584L63.0006 30.2117C64.4518 30.1237 65.881 30.0468 67.2883 29.9808C68.6955 29.9149 70.3007 29.838 72.1038 29.75C72.5435 29.706 73.0054 29.7389 73.4891 29.8488C73.9728 29.9588 74.2147 30.3437 74.2147 31.0033C74.2147 31.663 73.9728 32.0477 73.4891 32.1577C73.0054 32.2676 72.5435 32.3006 72.1038 32.2566C70.2567 32.1687 68.6296 32.0918 67.2224 32.0258C65.8151 31.9598 64.3639 31.8828 62.8687 31.7948V59.5001C62.8687 59.9839 62.9895 60.4236 63.2314 60.8194C63.4733 61.2152 63.7261 61.5451 63.99 61.809C64.2978 62.1168 64.6717 62.3806 65.1115 62.6005V62.7325H57.9873V62.6005C58.0753 62.6005 58.2401 62.5346 58.482 62.4027C58.7239 62.2707 58.9768 62.0728 59.2406 61.809C59.5045 61.5451 59.7354 61.2152 59.9333 60.8194C60.1312 60.4236 60.23 59.9839 60.23 59.5001V33.1142C60.23 32.6305 60.1421 32.2786 59.9662 32.0587C59.7903 31.8388 59.4166 31.685 58.8449 31.597C58.625 31.553 58.3391 31.5309 57.9873 31.5309V30.5415C58.1632 30.5415 58.3392 30.5306 58.5151 30.5086C58.691 30.4866 58.8668 30.4756 59.0427 30.4756H58.9108C59.4385 30.3876 59.7903 30.2336 59.9662 30.0137C60.1421 29.7938 60.23 29.4421 60.23 28.9584Z" fill="#005A81"/>
<path d="M76.1276 44.4601C76.0836 44.8119 76.0617 45.1306 76.0617 45.4165V46.373C76.0617 48.4839 76.3584 50.4958 76.9521 52.4088C77.5458 54.3218 78.3704 55.993 79.4259 57.4222C80.4813 58.8515 81.7237 59.9838 83.1529 60.8193C84.5822 61.6549 86.1322 62.0726 87.8033 62.0726C90.31 62.0726 92.41 61.589 94.1031 60.6215C95.7962 59.654 97.2804 58.0928 98.5558 55.9379L99.4132 56.3997C98.2698 58.3787 96.7856 60.0388 94.9606 61.3801C93.1355 62.7214 90.7498 63.392 87.8033 63.392C85.4726 63.392 83.4168 62.9632 81.6357 62.1057C79.8547 61.2481 78.3484 60.0607 77.117 58.5435C75.8857 57.0263 74.9622 55.2234 74.3465 53.1345C73.7308 51.0456 73.423 48.7918 73.423 46.373C73.423 43.9104 73.7969 41.6345 74.5445 39.5456C75.2921 37.4568 76.3146 35.6647 77.6119 34.1695C78.9092 32.6743 80.4263 31.509 82.1633 30.6735C83.9004 29.8379 85.7804 29.4201 87.8033 29.4201C89.8702 29.4201 91.6733 29.8268 93.2125 30.6404C94.7517 31.454 96.0271 32.5534 97.0386 33.9387C98.05 35.3239 98.8195 36.9291 99.3472 38.7542C99.875 40.5792 100.139 42.4812 100.139 44.4601H76.1276ZM87.8033 30.4755C86.1322 30.4755 84.6261 30.8163 83.2848 31.498C81.9435 32.1796 80.7891 33.1031 79.8216 34.2685C78.8541 35.4339 78.0736 36.8081 77.4799 38.3913C76.8862 39.9745 76.4795 41.6676 76.2596 43.4707H97.5002C97.5002 42.0194 97.3134 40.5351 96.9396 39.0179C96.5658 37.5007 95.9831 36.1045 95.1916 34.8291C94.4 33.5538 93.3885 32.5093 92.1572 31.6958C90.9258 30.8822 89.4745 30.4755 87.8033 30.4755Z" fill="#005A81"/>
<path d="M101.458 30.5415C101.81 30.5415 102.239 30.4536 102.744 30.2776C103.25 30.1017 103.745 29.871 104.229 29.5851C104.712 29.2993 105.13 28.9474 105.482 28.5296C105.834 28.1118 106.01 27.6391 106.01 27.1114H106.34V30.2117C107.791 30.1238 109.242 30.0468 110.693 29.9809C112.144 29.9149 113.772 29.838 115.575 29.75C116.014 29.7061 116.476 29.7389 116.96 29.8489C117.444 29.9588 117.685 30.3437 117.685 31.0034C117.685 31.663 117.444 32.0478 116.96 32.1577C116.476 32.2676 116.014 32.3007 115.575 32.2567C113.728 32.1687 112.1 32.0918 110.693 32.0258C109.286 31.9599 107.835 31.8828 106.34 31.7948V54.8826C106.34 57.0815 106.878 58.8296 107.956 60.1269C109.033 61.4242 110.473 62.0727 112.276 62.0727C113.948 62.0727 115.476 61.4681 116.861 60.2588C118.246 59.0494 119.313 57.4992 120.06 55.6082L120.654 55.8721C120.346 56.7956 119.939 57.7082 119.433 58.6097C118.928 59.5112 118.301 60.3137 117.554 61.0174C116.806 61.721 115.959 62.2928 115.014 62.7325C114.068 63.1723 113.024 63.3921 111.881 63.3921C110.737 63.3921 109.66 63.2162 108.648 62.8644C107.637 62.5126 106.768 61.9849 106.043 61.2813C105.317 60.5776 104.745 59.698 104.328 58.6426C103.91 57.5872 103.701 56.3339 103.701 54.8826V33.1143C103.701 32.3667 103.492 31.9159 103.074 31.762C102.656 31.608 102.118 31.531 101.458 31.531V30.5415Z" fill="#005A81"/>
<path d="M133.253 69.5928C132.462 72.0995 131.571 74.0125 130.582 75.3318C129.592 76.6511 128.724 77.5746 127.976 78.1023C127.712 78.3222 127.36 78.542 126.921 78.7619C126.481 78.9818 125.997 79.1797 125.469 79.3556C124.942 79.5315 124.392 79.6634 123.82 79.7514C123.249 79.8393 122.699 79.8174 122.171 79.6854C121.731 79.5975 121.259 79.3446 120.753 78.9268C120.247 78.509 120.082 77.9924 120.258 77.3767C120.566 76.3653 121.445 75.8815 122.897 75.9255C123.249 75.9694 123.666 76.0464 124.15 76.1563C124.634 76.2662 125.162 76.3212 125.733 76.3212C128.636 76.3212 130.813 74.0784 132.264 69.5928L134.441 62.7325L123.161 33.4441C122.985 32.8284 122.688 32.3226 122.27 31.9269C121.852 31.5311 121.424 31.1792 120.984 30.8713C120.456 30.5635 119.906 30.2997 119.335 30.0798V29.75H126.261V30.0798C126.173 30.0798 126.008 30.3547 125.766 30.9044C125.524 31.4541 125.579 32.3007 125.931 33.4441L135.694 58.6426L143.676 33.4441C143.852 32.8724 143.885 32.3775 143.775 31.9597C143.665 31.542 143.511 31.1902 143.313 30.9044C143.115 30.6185 142.906 30.4096 142.686 30.2776C142.466 30.1457 142.334 30.0798 142.29 30.0798V29.75H149.217V30.0798C148.513 30.2997 147.875 30.5635 147.304 30.8713C146.776 31.1792 146.27 31.5311 145.787 31.9269C145.303 32.3226 144.951 32.8284 144.731 33.4441L133.253 69.5928Z" fill="#005A81"/>
<mask id="mask0_119_120" style="mask-type:alpha" maskUnits="userSpaceOnUse" x="136" y="0" width="78" height="77">
<rect x="136.385" width="76.9757" height="76.9757" fill="#00B2FF"/>
</mask>
<g mask="url(#mask0_119_120)">
<path d="M174.873 66.3915C171.024 66.3915 167.402 65.6564 164.008 64.1864C160.613 62.7164 157.66 60.7252 155.148 58.2128C152.635 55.7004 150.644 52.747 149.174 49.3526C147.704 45.9582 146.969 42.3366 146.969 38.4878C146.969 34.639 147.704 31.0174 149.174 27.623C150.644 24.2286 152.635 21.2752 155.148 18.7628C157.66 16.2504 160.613 14.2592 164.008 12.7891C167.402 11.3191 171.024 10.5841 174.873 10.5841C178.721 10.5841 182.343 11.3191 185.737 12.7891C189.132 14.2592 192.085 16.2504 194.598 18.7628C197.11 21.2752 199.101 24.2286 200.571 27.623C202.041 31.0174 202.776 34.639 202.776 38.4878C202.776 42.3366 202.041 45.9582 200.571 49.3526C199.101 52.747 197.11 55.7004 194.598 58.2128C192.085 60.7252 189.132 62.7164 185.737 64.1864C182.343 65.6564 178.721 66.3915 174.873 66.3915ZM174.873 64.2265C176.904 61.6607 178.561 59.175 179.844 56.7695C181.127 54.364 182.169 51.6378 182.971 48.5908H166.774C167.683 51.8516 168.752 54.6847 169.981 57.0902C171.211 59.4957 172.841 61.8745 174.873 64.2265ZM172.066 63.986C170.409 62.2219 168.886 59.9367 167.496 57.1303C166.106 54.3239 165.09 51.4774 164.449 48.5908H151.299C153.223 52.9742 156.03 56.529 159.718 59.2552C163.406 61.9814 167.522 63.5583 172.066 63.986ZM177.679 63.986C182.223 63.5583 186.339 61.9814 190.027 59.2552C193.716 56.529 196.522 52.9742 198.446 48.5908H185.296C184.388 51.5309 183.238 54.4041 181.848 57.2105C180.459 60.0169 179.069 62.2754 177.679 63.986ZM150.417 46.3457H163.968C163.7 44.9559 163.513 43.6061 163.406 42.2965C163.299 40.9868 163.246 39.7173 163.246 38.4878C163.246 37.2583 163.299 35.9888 163.406 34.6791C163.513 33.3694 163.7 32.0197 163.968 30.6299H150.417C150.043 31.7524 149.749 33.0086 149.535 34.3985C149.321 35.7883 149.214 37.1514 149.214 38.4878C149.214 39.8242 149.321 41.1873 149.535 42.5771C149.749 43.967 150.043 45.2232 150.417 46.3457ZM166.213 46.3457H183.532C183.8 44.9559 183.987 43.6329 184.094 42.3767C184.201 41.1205 184.254 39.8242 184.254 38.4878C184.254 37.1514 184.201 35.8551 184.094 34.5989C183.987 33.3427 183.8 32.0197 183.532 30.6299H166.213C165.946 32.0197 165.758 33.3427 165.652 34.5989C165.545 35.8551 165.491 37.1514 165.491 38.4878C165.491 39.8242 165.545 41.1205 165.652 42.3767C165.758 43.6329 165.946 44.9559 166.213 46.3457ZM185.777 46.3457H199.328C199.703 45.2232 199.997 43.967 200.21 42.5771C200.424 41.1873 200.531 39.8242 200.531 38.4878C200.531 37.1514 200.424 35.7883 200.21 34.3985C199.997 33.0086 199.703 31.7524 199.328 30.6299H185.777C186.045 32.0197 186.232 33.3694 186.339 34.6791C186.446 35.9888 186.499 37.2583 186.499 38.4878C186.499 39.7173 186.446 40.9868 186.339 42.2965C186.232 43.6061 186.045 44.9559 185.777 46.3457ZM185.296 28.3847H198.446C196.469 23.8945 193.702 20.3397 190.147 17.7204C186.593 15.1011 182.436 13.4974 177.679 12.9094C179.336 14.9407 180.833 17.3195 182.169 20.0457C183.506 22.7719 184.548 25.5516 185.296 28.3847ZM166.774 28.3847H182.971C182.062 25.1774 180.953 22.3042 179.643 19.7651C178.334 17.2259 176.743 14.8873 174.873 12.7491C173.002 14.8873 171.411 17.2259 170.102 19.7651C168.792 22.3042 167.683 25.1774 166.774 28.3847ZM151.299 28.3847H164.449C165.197 25.5516 166.24 22.7719 167.576 20.0457C168.912 17.3195 170.409 14.9407 172.066 12.9094C167.255 13.4974 163.086 15.1145 159.558 17.7605C156.03 20.4065 153.277 23.9479 151.299 28.3847Z" fill="#9BCADE"/>
</g>
<path d="M235.411 21.768V62.7324H234.422L203.682 20.1849V57.5212C203.682 58.3567 203.913 59.0713 204.375 59.665C204.837 60.2587 205.353 60.7754 205.925 61.2152C206.541 61.699 207.266 62.0948 208.102 62.4026V62.7324H198.339V62.4026C198.427 62.4026 198.702 62.3036 199.164 62.1057C199.625 61.9078 200.12 61.611 200.648 61.2152C201.175 60.8194 201.648 60.3137 202.066 59.698C202.484 59.0823 202.693 58.3567 202.693 57.5212V21.768C202.693 20.9325 202.484 20.2069 202.066 19.5912C201.648 18.9755 201.175 18.4698 200.648 18.074C200.12 17.6782 199.625 17.3814 199.164 17.1836C198.702 16.9857 198.427 16.8866 198.339 16.8866V16.5568H204.276L234.422 58.2467V21.768C234.422 20.9325 234.202 20.2069 233.762 19.5912C233.323 18.9755 232.839 18.4698 232.311 18.074C231.783 17.6782 231.288 17.3814 230.827 17.1836C230.365 16.9857 230.09 16.8866 230.002 16.8866V16.5568H239.765V16.8866C238.973 17.1945 238.248 17.5903 237.588 18.074C237.06 18.4698 236.566 18.9755 236.104 19.5912C235.642 20.2069 235.411 20.9325 235.411 21.768Z" fill="#005A81"/>
<path d="M242.47 44.4601C242.426 44.8119 242.404 45.1306 242.404 45.4165V46.373C242.404 48.4839 242.7 50.4958 243.294 52.4088C243.888 54.3218 244.712 55.993 245.768 57.4222C246.823 58.8515 248.066 59.9838 249.495 60.8193C250.924 61.6549 252.474 62.0726 254.145 62.0726C256.652 62.0726 258.752 61.589 260.445 60.6215C262.138 59.654 263.622 58.0928 264.898 55.9379L265.755 56.3997C264.612 58.3787 263.128 60.0388 261.303 61.3801C259.477 62.7214 257.092 63.392 254.145 63.392C251.815 63.392 249.759 62.9632 247.978 62.1057C246.197 61.2481 244.69 60.0607 243.459 58.5435C242.228 57.0263 241.304 55.2234 240.688 53.1345C240.073 51.0456 239.765 48.7918 239.765 46.373C239.765 43.9103 240.139 41.6345 240.886 39.5456C241.634 37.4567 242.656 35.6647 243.954 34.1695C245.251 32.6743 246.768 31.509 248.505 30.6734C250.242 29.8379 252.122 29.4201 254.145 29.4201C256.212 29.4201 258.015 29.8268 259.554 30.6404C261.094 31.454 262.369 32.5534 263.38 33.9387C264.392 35.3239 265.161 36.9291 265.689 38.7542C266.217 40.5792 266.481 42.4811 266.481 44.4601H242.47ZM254.145 30.4755C252.474 30.4755 250.968 30.8163 249.627 31.498C248.285 32.1796 247.131 33.1031 246.164 34.2685C245.196 35.4339 244.416 36.8081 243.822 38.3913C243.228 39.9745 242.821 41.6676 242.601 43.4707H263.842C263.842 42.0194 263.655 40.5351 263.282 39.0179C262.908 37.5007 262.325 36.1045 261.533 34.8291C260.742 33.5538 259.73 32.5093 258.499 31.6958C257.268 30.8822 255.816 30.4755 254.145 30.4755Z" fill="#005A81"/>
<path d="M267.8 30.5415C268.152 30.5415 268.581 30.4536 269.087 30.2776C269.592 30.1017 270.087 29.871 270.571 29.5851C271.054 29.2993 271.472 28.9474 271.824 28.5296C272.176 28.1118 272.352 27.6391 272.352 27.1114H272.682V30.2117C274.133 30.1238 275.584 30.0468 277.035 29.9809C278.486 29.9149 280.114 29.838 281.917 29.75C282.356 29.7061 282.818 29.7389 283.302 29.8489C283.786 29.9588 284.028 30.3437 284.028 31.0034C284.028 31.663 283.786 32.0478 283.302 32.1577C282.818 32.2676 282.356 32.3007 281.917 32.2567C280.07 32.1687 278.442 32.0918 277.035 32.0258C275.628 31.9599 274.177 31.8828 272.682 31.7948V54.8826C272.682 57.0815 273.22 58.8296 274.298 60.1269C275.375 61.4242 276.815 62.0727 278.618 62.0727C280.289 62.0727 281.818 61.4681 283.203 60.2588C284.588 59.0494 285.655 57.4992 286.402 55.6082L286.996 55.8721C286.688 56.7956 286.281 57.7082 285.776 58.6097C285.27 59.5112 284.643 60.3137 283.896 61.0174C283.148 61.721 282.301 62.2928 281.356 62.7325C280.41 63.1723 279.366 63.3921 278.223 63.3921C277.079 63.3921 276.002 63.2162 274.99 62.8644C273.979 62.5126 273.11 61.9849 272.385 61.2813C271.659 60.5776 271.087 59.698 270.67 58.6426C270.252 57.5872 270.043 56.3339 270.043 54.8826V33.1143C270.043 32.3667 269.834 31.9159 269.416 31.762C268.999 31.608 268.46 31.531 267.8 31.531V30.5415Z" fill="#005A81"/>
</svg>
